# xmcd
#
# Track frame offsets: 
#        150
#        13175
#        26121
#        37304
#        51179
#        60921
#        74001
#        87276
#        100926
#        112626
#        124011
#        141318
#
# Disc length: 2051 seconds
#
# Revision: 0
# Processed by: cddbd v1.5.2PL0 Copyright (c) Steve Scherf et al.
# Submitted via: ExactAudioCopy v0.99pb3
#
DISCID=a708010c
DTITLE=Albert King - The Big Blues
DYEAR=2008
DGENRE=Blues
TTITLE0=Let's Have A Natural Ball
TTITLE1=What Can I Do To Change Your Mind
TTITLE2=I Get Evil
TTITLE3=Had You Told It Like It Was (It Wouldn't Be Like It Is)
TTITLE4=This Morning
TTITLE5=I Walked All Night Long
TTITLE6=Don't Throw Your Love On Me So Strong
TTITLE7=Travelin' To California
TTITLE8=I've Made Nights By Myself
TTITLE9=This Funny Feeling
TTITLE10=Ooh-ee Baby
TTITLE11=Dyna Flow
EXTD=
EXTT0=
EXTT1=
EXTT2=
EXTT3=
EXTT4=
EXTT5=
EXTT6=
EXTT7=
EXTT8=
EXTT9=
EXTT10=
EXTT11=
PLAYORDER=
